<mxfile host="app.diagrams.net" modified="2023-05-25T06:54:46.113Z" agent="Mozilla/5.0 (Windows NT 10.0; Win64; x64) AppleWebKit/537.36 (KHTML, like Gecko) Chrome/113.0.0.0 Safari/537.36 Edg/113.0.1774.50" etag="dhjG8TYPiyqOePegY9Ax" version="21.3.3" type="device">
  <diagram name="Página-1" id="QSVk62bTgKQDER2lYicq">
    <mxGraphModel dx="880" dy="484" grid="1" gridSize="10" guides="1" tooltips="1" connect="1" arrows="1" fold="1" page="1" pageScale="1" pageWidth="827" pageHeight="1169" math="0" shadow="0">
      <root>
        <mxCell id="0" />
        <mxCell id="1" parent="0" />
        <mxCell id="o2Xp7l4Mjlaz5k0nUaIm-1" value="" style="rounded=0;whiteSpace=wrap;html=1;" vertex="1" parent="1">
          <mxGeometry x="420" y="240" width="120" height="60" as="geometry" />
        </mxCell>
        <mxCell id="o2Xp7l4Mjlaz5k0nUaIm-9" value="" style="edgeStyle=orthogonalEdgeStyle;rounded=0;orthogonalLoop=1;jettySize=auto;html=1;entryX=0;entryY=0.5;entryDx=0;entryDy=0;" edge="1" parent="1" source="o2Xp7l4Mjlaz5k0nUaIm-2" target="o2Xp7l4Mjlaz5k0nUaIm-4">
          <mxGeometry relative="1" as="geometry">
            <mxPoint x="480" y="380" as="targetPoint" />
          </mxGeometry>
        </mxCell>
        <mxCell id="o2Xp7l4Mjlaz5k0nUaIm-2" value="Planejamento e análise" style="rounded=0;whiteSpace=wrap;html=1;" vertex="1" parent="1">
          <mxGeometry x="420" y="240" width="120" height="60" as="geometry" />
        </mxCell>
        <mxCell id="o2Xp7l4Mjlaz5k0nUaIm-11" style="edgeStyle=orthogonalEdgeStyle;rounded=0;orthogonalLoop=1;jettySize=auto;html=1;exitX=0.5;exitY=1;exitDx=0;exitDy=0;entryX=0;entryY=0.5;entryDx=0;entryDy=0;" edge="1" parent="1" source="o2Xp7l4Mjlaz5k0nUaIm-3" target="o2Xp7l4Mjlaz5k0nUaIm-5">
          <mxGeometry relative="1" as="geometry" />
        </mxCell>
        <mxCell id="o2Xp7l4Mjlaz5k0nUaIm-3" value="Desenvolvimento" style="rounded=0;whiteSpace=wrap;html=1;" vertex="1" parent="1">
          <mxGeometry x="660" y="360" width="120" height="60" as="geometry" />
        </mxCell>
        <mxCell id="o2Xp7l4Mjlaz5k0nUaIm-10" style="edgeStyle=orthogonalEdgeStyle;rounded=0;orthogonalLoop=1;jettySize=auto;html=1;exitX=0.5;exitY=1;exitDx=0;exitDy=0;entryX=0;entryY=0.5;entryDx=0;entryDy=0;" edge="1" parent="1" source="o2Xp7l4Mjlaz5k0nUaIm-4" target="o2Xp7l4Mjlaz5k0nUaIm-3">
          <mxGeometry relative="1" as="geometry" />
        </mxCell>
        <mxCell id="o2Xp7l4Mjlaz5k0nUaIm-4" value="Design" style="rounded=0;whiteSpace=wrap;html=1;" vertex="1" parent="1">
          <mxGeometry x="540" y="300" width="120" height="60" as="geometry" />
        </mxCell>
        <mxCell id="o2Xp7l4Mjlaz5k0nUaIm-12" style="edgeStyle=orthogonalEdgeStyle;rounded=0;orthogonalLoop=1;jettySize=auto;html=1;exitX=0.5;exitY=1;exitDx=0;exitDy=0;entryX=0;entryY=0.5;entryDx=0;entryDy=0;" edge="1" parent="1" source="o2Xp7l4Mjlaz5k0nUaIm-5" target="o2Xp7l4Mjlaz5k0nUaIm-6">
          <mxGeometry relative="1" as="geometry" />
        </mxCell>
        <mxCell id="o2Xp7l4Mjlaz5k0nUaIm-5" value="Testes" style="rounded=0;whiteSpace=wrap;html=1;" vertex="1" parent="1">
          <mxGeometry x="780" y="420" width="120" height="60" as="geometry" />
        </mxCell>
        <mxCell id="o2Xp7l4Mjlaz5k0nUaIm-13" style="edgeStyle=orthogonalEdgeStyle;rounded=0;orthogonalLoop=1;jettySize=auto;html=1;exitX=0.5;exitY=1;exitDx=0;exitDy=0;entryX=0;entryY=0.5;entryDx=0;entryDy=0;" edge="1" parent="1" source="o2Xp7l4Mjlaz5k0nUaIm-6" target="o2Xp7l4Mjlaz5k0nUaIm-7">
          <mxGeometry relative="1" as="geometry" />
        </mxCell>
        <mxCell id="o2Xp7l4Mjlaz5k0nUaIm-6" value="Implantação" style="rounded=0;whiteSpace=wrap;html=1;" vertex="1" parent="1">
          <mxGeometry x="900" y="480" width="120" height="60" as="geometry" />
        </mxCell>
        <mxCell id="o2Xp7l4Mjlaz5k0nUaIm-7" value="Manutenção e melhoria" style="rounded=0;whiteSpace=wrap;html=1;" vertex="1" parent="1">
          <mxGeometry x="1020" y="540" width="120" height="60" as="geometry" />
        </mxCell>
      </root>
    </mxGraphModel>
  </diagram>
</mxfile>
